# xmcd
#
# Track frame offsets:
#	150
#	27156
#	41032
#	55252
#	83614
#	118339
#	131807
#	145769
#	164482
#
# Disc length: 2423
#
# Revision: 1
# Processed by: cddbd v1.5.1PL0 Copyright (c) Steve Scherf et al.
# Submitted via: CDex 1.50
# Normalized: r0:TRMNUM
#
DISCID=7c097509
DTITLE=Stevie Ray Vaughan and Double Trouble - In The Beginning
DYEAR=1900
DGENRE=Blues
TTITLE0=In The Open
TTITLE1=Slide Thing
TTITLE2=They Call Me Guitar Hurrican
TTITLE3=All Your Love I Miss Loving
TTITLE4=Tin Pan Alley
TTITLE5=Love Struck Baby
TTITLE6=Tell Me
TTITLE7=Shake For Me
TTITLE8=Live Another Day
EXTD=
EXTT0=
EXTT1=
EXTT2=
EXTT3=
EXTT4=
EXTT5=
EXTT6=
EXTT7=
EXTT8=
PLAYORDER=
